<svg width="40" height="40" viewBox="0 0 40 40" fill="none" xmlns="http://www.w3.org/2000/svg">
  <!-- Brain and Heart Symbol -->
  <defs>
    <linearGradient id="brainGradient" x1="0%" y1="0%" x2="100%" y2="100%">
      <stop offset="0%" style="stop-color:#0891b2;stop-opacity:1" />
      <stop offset="100%" style="stop-color:#10b981;stop-opacity:1" />
    </linearGradient>
    <linearGradient id="heartGradient" x1="0%" y1="0%" x2="100%" y2="100%">
      <stop offset="0%" style="stop-color:#22d3ee;stop-opacity:1" />
      <stop offset="100%" style="stop-color:#06b6d4;stop-opacity:1" />
    </linearGradient>
  </defs>
  
  <!-- Brain outline -->
  <path d="M20 8C15 8 11 12 11 17C11 20 12.5 23 15 25C13.5 27 12 30 12 33C12 35 13 36 15 36C17 36 18 35 18 33C18 30 16.5 27 15 25C17.5 23 19 20 19 17C19 12 15 8 20 8Z" fill="url(#brainGradient)" opacity="0.9"/>
  
  <!-- Brain details -->
  <path d="M20 10C16 10 13 13 13 17C13 19.5 14 21.5 16 23C14.5 24.5 13.5 27 13.5 29.5C13.5 30.5 14 31 14.5 31C15 31 15.5 30.5 15.5 29.5C15.5 27 16.5 24.5 18 23C20 21.5 21 19.5 21 17C21 13 16 10 20 10Z" fill="white" opacity="0.3"/>
  
  <!-- Heart symbol -->
  <path d="M25 15C25 15 26 16 26 17C26 18 25 19 24 20C23 21 22 22 21 23C20 22 19 21 18 20C17 19 16 18 16 17C16 16 17 15 17 15C17 15 18 14 19 14C20 14 21 15 21 15C21 15 22 14 23 14C24 14 25 15 25 15Z" fill="url(#heartGradient)"/>
  
  <!-- Connection lines -->
  <path d="M22 20L24 18" stroke="#0891b2" stroke-width="1" opacity="0.6"/>
  <path d="M18 20L16 18" stroke="#0891b2" stroke-width="1" opacity="0.6"/>
</svg>
